<?xml version="1.0" encoding="UTF-8" standalone="no"?>
<!-- Created with Inkscape (http://www.inkscape.org/) -->

<svg
   width="183.71481mm"
   height="214.34637mm"
   viewBox="0 0 183.71481 214.34638"
   version="1.1"
   id="svg1"
   xml:space="preserve"
   inkscape:version="1.3.2 (091e20e, 2023-11-25, custom)"
   sodipodi:docname="nozik.svg"
   inkscape:export-filename="n1.2.svg"
   inkscape:export-xdpi="300"
   inkscape:export-ydpi="300"
   xmlns:inkscape="http://www.inkscape.org/namespaces/inkscape"
   xmlns:sodipodi="http://sodipodi.sourceforge.net/DTD/sodipodi-0.dtd"
   xmlns="http://www.w3.org/2000/svg"
   xmlns:svg="http://www.w3.org/2000/svg"><sodipodi:namedview
     id="namedview1"
     pagecolor="#ffffff"
     bordercolor="#666666"
     borderopacity="1.0"
     inkscape:showpageshadow="2"
     inkscape:pageopacity="0.0"
     inkscape:pagecheckerboard="0"
     inkscape:deskcolor="#d1d1d1"
     inkscape:document-units="mm"
     inkscape:zoom="0.086524095"
     inkscape:cx="3461.4635"
     inkscape:cy="17.336211"
     inkscape:window-width="1920"
     inkscape:window-height="991"
     inkscape:window-x="1911"
     inkscape:window-y="23"
     inkscape:window-maximized="1"
     inkscape:current-layer="layer1" /><defs
     id="defs1" /><g
     inkscape:label="Layer 1"
     inkscape:groupmode="layer"
     id="layer1"
     transform="translate(-886.00609,315.16689)"><path
       style="fill:#666666"
       d="m 985.151,-140.35896 c 8.5189,8.82947 10.4936,11.32095 11.5801,14.61061 4.3811,13.26469 -5.6914,25.66835 -19.6906,24.24795 -8.3188,-0.84405 -15.7206,-8.81583 -15.7388,-16.95074 -0.01,-3.30936 -0.2349,-4.20412 -1.0689,-4.20412 -2.3559,0 -3.28007,-1.22697 0.0378,-4.83077 l 32.14488,-31.79363 c -4.08767,5.44877 -15.44707,12.80202 -7.26451,18.9207 z m -3.1626,32.49005 c 7.2519,-1.52529 11.366,-9.38878 8.5683,-16.37702 -3.4489,-8.61488 -15.4013,-10.22591 -20.5328,-2.76755 -6.462,9.39219 1.0655,21.43697 11.9645,19.14457 z"
       id="path20"
       sodipodi:nodetypes="csscscccssss" /><path
       style="fill:#bbbbbb"
       d="m 976.9082,-100.95388 c -8.43444,-0.9729 -15.67159,-8.66456 -16.05104,-17.0591 -0.1581,-3.49754 -0.24134,-3.84853 -0.91263,-3.84853 -0.7021,0 -2.08632,-0.97745 -2.08632,-1.47322 0,-0.63474 -0.22659,-0.47058 -3.03756,2.20083 -16.10272,15.30317 -42.59459,13.62047 -57.4958,-3.652 -13.6987,-15.87859 -15.13418,-39.35896 -3.37172,-55.15165 1.50677,-2.02305 21.68951,-22.34853 51.81766,-52.18414 6.7936,-6.72763 12.3406,-12.32357 12.32666,-12.43542 -0.0793,-0.6368 -11.02423,-10.04943 -17.62035,-15.15355 -12.1735,-9.41995 -15.56881,-12.27161 -20.45433,-17.17927 -9.49948,-9.54253 -16.7766,-20.99985 -20.67334,-32.54876 -2.10017,-6.22433 -1.99089,-6.29195 8.37024,-5.17933 26.41784,2.83688 40.02988,9.85545 71.92039,37.0832 6.03914,5.15616 6.03914,5.15616 7.27604,4.02923 0.68029,-0.61981 4.78361,-4.58555 9.11848,-8.81277 12.72632,-12.41026 18.47872,-15.32989 30.87982,-15.67312 6.8114,-0.18851 8.8567,0.15871 15.8216,2.686 1.0079,0.36571 4.1546,1.93623 5.3205,2.65544 0.236,0.14552 0.9035,0.5585 1.4836,0.91773 18.1666,11.25121 25.2782,37.87543 15.3856,57.60063 -3.3178,6.61559 -0.8553,3.98748 -44.8724,47.8898 -40.10239,39.99775 -40.10239,39.99775 -34.78154,45.37604 10.24268,10.35325 12.0501,13.02687 12.84561,19.00188 1.60657,12.06663 -8.81362,22.339876 -21.20917,20.91008 z m 7.50575,-8.28094 c 7.86368,-3.73445 8.79373,-15.22994 1.61679,-19.98374 -7.53765,-4.99274 -16.31091,-0.91763 -17.93256,8.32953 -1.5065,8.59053 8.18703,15.51453 16.31577,11.65421 z"
       id="path19" /><path
       style="fill:#552200"
       d="m 957.17983,-123.30807 c -30.8132,30.080351 -77.9234,1.17212 -68.8149,-42.22686 0.6499,-3.09616 3.7596,-10.31208 5.3479,-12.40926 0.2793,-0.36874 1.206,-1.56429 2.0593,-2.65677 0.8533,-1.09248 12.1843,-12.58201 25.1799,-25.53229 12.9956,-12.95028 35.6013,-35.51885 50.2349,-50.15239 30.93437,-30.9344 32.82737,-32.778 35.46997,-34.54391 3.3778,-2.25728 7.4312,-4.30452 9.6573,-4.87759 0.4365,-0.11239 1.5081,-0.40695 2.3812,-0.65459 18.5257,-5.25428 39.1762,5.14689 46.8416,23.59305 0.5356,1.289 1.0971,2.57798 1.2477,2.8644 4.497,8.55347 3.7357,25.11748 -1.6477,35.84503 -3.1433,6.2638 -0.8774,3.8545 -44.8262,47.6628 -19.8717,19.80813 -36.67167,37.06672 -36.67167,37.06672 -2.3412,1.44471 -22.3403,22.00067 -26.4593,26.02166 z"
       id="path18"
       sodipodi:nodetypes="sssssssscscsscs" /><path
       style="fill:#2b1100"
       d="m 924.12383,-111.44282 c -19.11195,-2.04576 -34.08418,-17.15976 -37.05299,-37.40383 -0.23535,-1.60488 -0.37271,-3.06562 -0.30524,-3.2461 0.14713,-0.39356 0.15069,-0.38434 1.1419,2.95476 7.46457,25.14603 37.87653,37.24036 58.80883,23.38729 2.05484,-1.35991 54.36537,-53.13895 103.89157,-102.83593 12.606,-12.6495 16.5097,-20.22183 16.6163,-32.23197 0.045,-5.02824 0.3274,-4.9627 1.1022,0.25551 1.6496,11.10938 -0.794,22.08393 -6.9697,31.30163 -2.6243,3.91701 -106.07158,107.52269 -110.56617,110.73548 -7.24375,5.17794 -17.93523,8.01779 -26.6667,7.08316 z"
       id="path17" /><path
       style="fill:#999999;fill-opacity:1"
       d="m 956.66759,-246.63636 c -0.5821,-0.51455 -1.5941,-1.44954 -2.249,-2.07775 -0.6548,-0.62822 -1.905,-1.74139 -2.7781,-2.47373 -0.8731,-0.73233 -2.7781,-2.36354 -4.2333,-3.62491 -1.4552,-1.26137 -4.0151,-3.31815 -5.6886,-4.57062 -24.5507,-18.37422 -35.3689,-31.36704 -41.9668,-50.40286 -1.5381,-4.43772 -1.327,-4.95652 2.0171,-4.95652 2.6969,0 2.952,0.15115 3.5722,2.11667 1.2099,3.83376 5.1157,12.37367 7.2358,15.82086 6.324,10.28218 12.239,16.08254 34.5657,33.89605 1.5462,1.23363 1.5973,1.27606 6.0854,5.04503 10.5257,8.83928 10.0173,8.11663 7.3974,10.51477 -2.0969,1.91943 -2.5091,1.99367 -3.9578,0.71301 z"
       id="path21"
       sodipodi:nodetypes="sssssssssssss" /></g></svg>
