<?xml version="1.0" encoding="UTF-8" standalone="no"?>
<!-- Created with Inkscape (http://www.inkscape.org/) -->

<svg
   width="270.93335mm"
   height="270.93329mm"
   viewBox="0 0 270.93335 270.93329"
   version="1.1"
   id="svg1"
   xml:space="preserve"
   inkscape:version="1.3.2 (091e20e, 2023-11-25, custom)"
   sodipodi:docname="nozik.svg"
   inkscape:export-filename="n1.2.svg"
   inkscape:export-xdpi="300"
   inkscape:export-ydpi="300"
   xmlns:inkscape="http://www.inkscape.org/namespaces/inkscape"
   xmlns:sodipodi="http://sodipodi.sourceforge.net/DTD/sodipodi-0.dtd"
   xmlns="http://www.w3.org/2000/svg"
   xmlns:svg="http://www.w3.org/2000/svg"><sodipodi:namedview
     id="namedview1"
     pagecolor="#ffffff"
     bordercolor="#666666"
     borderopacity="1.0"
     inkscape:showpageshadow="2"
     inkscape:pageopacity="0.0"
     inkscape:pagecheckerboard="0"
     inkscape:deskcolor="#d1d1d1"
     inkscape:document-units="mm"
     inkscape:zoom="0.086524095"
     inkscape:cx="3461.4635"
     inkscape:cy="17.336211"
     inkscape:window-width="1920"
     inkscape:window-height="991"
     inkscape:window-x="1911"
     inkscape:window-y="23"
     inkscape:window-maximized="1"
     inkscape:current-layer="layer1" /><defs
     id="defs1" /><g
     inkscape:label="Layer 1"
     inkscape:groupmode="layer"
     id="layer1"
     transform="translate(-1299.7098,-304.23725)"><rect
       style="fill:#ffffff;fill-opacity:1;fill-rule:evenodd;stroke:none;stroke-width:0.600001;paint-order:fill markers stroke"
       id="rect26"
       width="270.93329"
       height="270.93329"
       x="1299.7098"
       y="304.23724" /><path
       style="fill:#552200"
       d="m 1383.5365,516.22148 c -0.2183,-0.044 -1.2898,-0.22461 -2.3812,-0.40125 -26.0743,-4.2201 -35.8408,-38.24288 -16.2417,-56.57998 1.2798,-1.19732 2.2225,-2.28241 2.1478,-2.47206 -0.073,-0.18591 -4.7702,-7.3627 -10.4377,-15.94843 -15.2725,-23.1365 -16.5103,-25.41889 -18.5819,-34.26354 -1.7139,-7.31763 -2.2054,-18.75104 -0.8637,-20.09269 2.7495,-2.74954 18.1406,3.15547 27.3084,10.47728 6.4671,5.16488 7.695,6.81371 24.3553,32.70362 15.2217,23.65434 12.2142,20.84971 22.2725,20.77005 9.9482,-0.0788 8.0118,1.80683 18.3474,-17.86664 5.2682,-10.02804 5.7678,-6.80455 -3.4976,-22.56885 -12.015,-20.44264 -13.0575,-23.09251 -13.0562,-33.1884 0,-11.99562 2.5397,-16.29659 7.0656,-11.97239 6.2664,5.9872 11.8305,13.76796 20.0558,28.04583 5.9526,10.3328 4.8401,10.10268 8.9536,1.85208 8.3396,-16.72739 11.8797,-22.25805 18.8027,-29.37603 4.7094,-4.84197 6.8931,-2.45351 7.8558,8.59253 0.8775,10.06867 -0.1541,13.33876 -10.9047,34.56652 -4.0598,8.0163 -7.3814,14.72493 -7.3814,14.90805 0,0.25027 13.264,22.88453 15.5172,26.47916 0.4856,0.7747 13.5395,0.83481 13.3651,0.0615 -0.049,-0.21828 -0.4841,-1.94468 -0.9664,-3.83645 -3.3954,-13.31872 -2.5043,-23.58099 2.9981,-34.52813 2.3998,-4.7745 5.872,-3.62112 4.9846,1.65576 -2.2665,13.47798 9.7068,19.09622 13.972,6.55604 3.546,-10.42553 2.0822,-17.42935 -4.5614,-21.82588 -3.5636,-2.35829 -2.3022,-5.15236 3.1095,-6.88772 10.6001,-3.3991 13.5831,-10.76012 8.7291,-21.54016 -4.578,-10.16711 8.102,-4.18844 15.1597,7.14786 5.4376,8.73399 5.603,13.95986 1.0245,32.38056 -3.7406,15.04983 -11.2186,45.43765 -11.8384,48.10696 -0.3147,1.35527 -0.3939,2.19094 -0.2293,2.42144 0.1382,0.19359 1.2038,1.4791 2.368,2.8567 15.5795,18.43579 6.4081,46.78505 -17.1631,53.05198 -2.3456,0.62361 -117.3528,1.30688 -120.288,0.71464 z m 130.6834,-61.44495 c 1.0695,-4.01588 13.8945,-56.20709 14.2223,-57.8776 1.298,-6.61411 -0.2716,-13.72927 -4.2542,-19.28547 -2.3856,-3.32815 -2.462,-3.31062 -2.4325,0.55798 0.059,7.78776 -3.2193,12.72221 -10.9314,16.45169 -1.217,0.58855 -2.2721,1.12937 -2.3445,1.20182 -0.072,0.0725 0.5095,0.8246 1.2933,1.67143 5.2238,5.64398 5.6592,17.28036 1.0092,26.97087 -4.2217,8.79804 -14.5488,9.71824 -20.2859,1.80758 -1.4625,-2.01664 -1.5162,-2.00396 -1.9321,0.4568 -0.7955,4.70698 0.01,12.50141 2.009,19.47767 1.3224,4.61148 0.7748,4.15868 5.2955,4.37847 6.624,0.32203 10.7862,1.37219 15.3911,3.88326 2.8149,1.53496 2.6377,1.51667 2.9602,0.3055 z m -141.6504,-0.84536 c 1.7635,-1.75426 9.0595,-3.19631 17.1186,-3.38345 3.6016,-0.0836 6.5484,-0.1935 6.5484,-0.24414 0,-0.0506 -4.4204,-6.90819 -9.8231,-15.23899 -5.4027,-8.3308 -10.7882,-16.6352 -11.9678,-18.45421 -8.9062,-13.73372 -16.7756,-20.3336 -28.8517,-24.19719 -4.6005,-1.47186 -4.2727,-1.6265 -4.18,1.9722 0.3298,12.79904 2.4802,17.92828 16.4174,39.15833 4.4423,6.76672 9.3042,14.17836 10.8043,16.47031 2.6628,4.06853 3.222,4.62537 3.9339,3.91714 z m 63.3639,-11.92079 c 4.9348,-9.30375 5.3935,-9.92056 9.3217,-12.53431 3.1089,-2.06856 3.2094,-2.23499 1.165,-1.92947 -2.2452,0.33554 -4.1497,-0.22048 -5.8343,-1.70327 -0.6848,-0.60284 -1.2832,-1.05163 -1.3297,-0.99732 -0.047,0.0543 -2.0528,3.90875 -4.4585,8.56542 -2.4057,4.65666 -5.3986,10.36168 -6.6509,12.67782 -1.2523,2.31614 -2.2768,4.25493 -2.2768,4.30843 0,0.0535 1.2696,0.0635 2.8214,0.0222 2.8215,-0.0751 2.8215,-0.0751 7.2421,-8.40948 z m 15.4989,8.05296 c -0.3635,-0.94718 -7.1062,-12.28629 -7.3059,-12.28629 -0.2042,0 -6.3828,11.6286 -6.5681,12.36164 -0.068,0.26844 1.3731,0.33836 6.9736,0.33836 6.2938,0 7.0419,-0.0449 6.9004,-0.41371 z m 15.6246,0.037 c -0.1819,-0.47392 -12.0842,-20.5706 -12.3783,-20.90035 -0.1245,-0.13954 -0.7544,0.25826 -1.4819,0.93576 -0.696,0.64817 -2.0691,1.75011 -3.0513,2.44876 -2.0622,1.46671 -0.1338,6.16466 7.0998,17.29726 0.4881,0.75117 10.0982,0.96525 9.8117,0.21857 z m -6.9867,-43.61024 c 9.4936,-18.61792 10.2321,-20.53516 10.6753,-27.71311 0.1652,-2.67583 -0.2333,-7.58839 -0.6493,-8.00443 -0.4849,-0.48488 -5.4587,5.80946 -8.3098,10.51598 -1.808,2.98458 -15.5799,30.2866 -15.4134,30.55607 0.067,0.10911 0.5921,0.27346 1.166,0.36522 2.1695,0.34693 4.8042,3.11463 5.3172,5.58568 0.437,2.10485 0.1331,2.58111 7.214,-11.30541 z m -20.3044,6.39832 c 2.6405,-5.3095 2.6405,-5.3095 1.6091,-7.2099 -9.4972,-17.49876 -18.4379,-31.24143 -22.4762,-34.54799 -1.8911,-1.54842 -1.4678,9.91822 0.5932,16.06987 1.4005,4.18024 2.5952,6.40016 11.4493,21.27408 6.8337,11.47976 5.614,10.86968 8.8246,4.41394 z"
       id="path26" /><path
       style="fill:#000000"
       d="m 1383.5365,516.22148 c -0.2183,-0.044 -1.2898,-0.22461 -2.3812,-0.40125 -26.0743,-4.2201 -35.8408,-38.24288 -16.2417,-56.57998 1.2798,-1.19732 2.2225,-2.28241 2.1478,-2.47206 -0.073,-0.18591 -4.7702,-7.3627 -10.4377,-15.94843 -15.2725,-23.1365 -16.5103,-25.41889 -18.5819,-34.26354 -1.7139,-7.31763 -2.2054,-18.75104 -0.8637,-20.09269 2.7495,-2.74954 18.1406,3.15547 27.3084,10.47728 6.4671,5.16488 7.695,6.81371 24.3553,32.70362 15.2217,23.65434 12.2142,20.84971 22.2725,20.77005 9.9482,-0.0788 8.0118,1.80683 18.3474,-17.86664 5.2682,-10.02804 5.7678,-6.80455 -3.4976,-22.56885 -12.015,-20.44264 -13.0575,-23.09251 -13.0562,-33.1884 0,-11.99562 2.5397,-16.29659 7.0656,-11.97239 6.2664,5.9872 11.8305,13.76796 20.0558,28.04583 5.9526,10.3328 4.8401,10.10268 8.9536,1.85208 8.3396,-16.72739 11.8797,-22.25805 18.8027,-29.37603 4.7094,-4.84197 6.8931,-2.45351 7.8558,8.59253 0.8775,10.06867 -0.1541,13.33876 -10.9047,34.56652 -4.0598,8.0163 -7.3814,14.72493 -7.3814,14.90805 0,0.25027 13.264,22.88453 15.5172,26.47916 0.4856,0.7747 13.5395,0.83481 13.3651,0.0615 -0.049,-0.21828 -0.4841,-1.94468 -0.9664,-3.83645 -3.3954,-13.31872 -2.5043,-23.58099 2.9981,-34.52813 2.3998,-4.7745 5.872,-3.62112 4.9846,1.65576 -2.2665,13.47798 9.7068,19.09622 13.972,6.55604 3.546,-10.42553 2.0822,-17.42935 -4.5614,-21.82588 -3.5636,-2.35829 -2.3022,-5.15236 3.1095,-6.88772 10.6001,-3.3991 13.5831,-10.76012 8.7291,-21.54016 -4.578,-10.16711 8.102,-4.18844 15.1597,7.14786 5.4376,8.73399 5.603,13.95986 1.0245,32.38056 -3.7406,15.04983 -11.2186,45.43765 -11.8384,48.10696 -0.3147,1.35527 -0.3939,2.19094 -0.2293,2.42144 0.1382,0.19359 1.2038,1.4791 2.368,2.8567 15.5795,18.43579 6.4081,46.78505 -17.1631,53.05198 -2.3456,0.62361 -117.3528,1.30688 -120.288,0.71464 z m 116.3205,-5.17661 c 30.7367,-4.27509 31.4348,-49.13837 0.8538,-54.86874 -4.6689,-0.87487 -118.0744,-0.44926 -120.9536,0.45394 -28.3585,8.89584 -26.0192,49.79079 3.1072,54.31812 2.8555,0.44385 113.8371,0.53556 116.9926,0.0967 z m 14.3629,-56.26834 c 1.0695,-4.01588 13.8945,-56.20709 14.2223,-57.8776 1.298,-6.61411 -0.2716,-13.72927 -4.2542,-19.28547 -2.3856,-3.32815 -2.462,-3.31062 -2.4325,0.55798 0.059,7.78776 -3.2193,12.72221 -10.9314,16.45169 -1.217,0.58855 -2.2721,1.12937 -2.3445,1.20182 -0.072,0.0725 0.5095,0.8246 1.2933,1.67143 5.2238,5.64398 5.6592,17.28036 1.0092,26.97087 -4.2217,8.79804 -14.5488,9.71824 -20.2859,1.80758 -1.4625,-2.01664 -1.5162,-2.00396 -1.9321,0.4568 -0.7955,4.70698 0.01,12.50141 2.009,19.47767 1.3224,4.61148 0.7748,4.15868 5.2955,4.37847 6.624,0.32203 10.7862,1.37219 15.3911,3.88326 2.8149,1.53496 2.6377,1.51667 2.9602,0.3055 z m -141.6504,-0.84536 c 1.7635,-1.75426 9.0595,-3.19631 17.1186,-3.38345 3.6016,-0.0836 6.5484,-0.1935 6.5484,-0.24414 0,-0.0506 -4.4204,-6.90819 -9.8231,-15.23899 -5.4027,-8.3308 -10.7882,-16.6352 -11.9678,-18.45421 -8.9062,-13.73372 -16.7756,-20.3336 -28.8517,-24.19719 -4.6005,-1.47186 -4.2727,-1.6265 -4.18,1.9722 0.3298,12.79904 2.4802,17.92828 16.4174,39.15833 4.4423,6.76672 9.3042,14.17836 10.8043,16.47031 2.6628,4.06853 3.222,4.62537 3.9339,3.91714 z m 63.3639,-11.92079 c 4.9348,-9.30375 5.3935,-9.92056 9.3217,-12.53431 3.1089,-2.06856 3.2094,-2.23499 1.165,-1.92947 -2.2452,0.33554 -4.1497,-0.22048 -5.8343,-1.70327 -0.6848,-0.60284 -1.2832,-1.05163 -1.3297,-0.99732 -0.047,0.0543 -2.0528,3.90875 -4.4585,8.56542 -2.4057,4.65666 -5.3986,10.36168 -6.6509,12.67782 -1.2523,2.31614 -2.2768,4.25493 -2.2768,4.30843 0,0.0535 1.2696,0.0635 2.8214,0.0222 2.8215,-0.0751 2.8215,-0.0751 7.2421,-8.40948 z m 15.4989,8.05296 c -0.3635,-0.94718 -7.1062,-12.28629 -7.3059,-12.28629 -0.2042,0 -6.3828,11.6286 -6.5681,12.36164 -0.068,0.26844 1.3731,0.33836 6.9736,0.33836 6.2938,0 7.0419,-0.0449 6.9004,-0.41371 z m 15.6246,0.037 c -0.1819,-0.47392 -12.0842,-20.5706 -12.3783,-20.90035 -0.1245,-0.13954 -0.7544,0.25826 -1.4819,0.93576 -0.696,0.64817 -2.0691,1.75011 -3.0513,2.44876 -2.0622,1.46671 -0.1338,6.16466 7.0998,17.29726 0.4881,0.75117 10.0982,0.96525 9.8117,0.21857 z m -6.9867,-43.61024 c 9.4936,-18.61792 10.2321,-20.53516 10.6753,-27.71311 0.1652,-2.67583 -0.2333,-7.58839 -0.6493,-8.00443 -0.4849,-0.48488 -5.4587,5.80946 -8.3098,10.51598 -1.808,2.98458 -15.5799,30.2866 -15.4134,30.55607 0.067,0.10911 0.5921,0.27346 1.166,0.36522 2.1695,0.34693 4.8042,3.11463 5.3172,5.58568 0.437,2.10485 0.1331,2.58111 7.214,-11.30541 z m -20.3044,6.39832 c 2.6405,-5.3095 2.6405,-5.3095 1.6091,-7.2099 -9.4972,-17.49876 -18.4379,-31.24143 -22.4762,-34.54799 -1.8911,-1.54842 -1.4678,9.91822 0.5932,16.06987 1.4005,4.18024 2.5952,6.40016 11.4493,21.27408 6.8337,11.47976 5.614,10.86968 8.8246,4.41394 z"
       id="path25" /></g></svg>
