<?xml version="1.0" encoding="UTF-8" standalone="no"?>
<!-- Created with Inkscape (http://www.inkscape.org/) -->

<svg
   width="197.53304mm"
   height="153.26213mm"
   viewBox="0 0 197.53304 153.26213"
   version="1.1"
   id="svg1"
   xml:space="preserve"
   inkscape:version="1.3.2 (091e20e, 2023-11-25, custom)"
   sodipodi:docname="nozik.svg"
   inkscape:export-filename="n1.2.svg"
   inkscape:export-xdpi="300"
   inkscape:export-ydpi="300"
   xmlns:inkscape="http://www.inkscape.org/namespaces/inkscape"
   xmlns:sodipodi="http://sodipodi.sourceforge.net/DTD/sodipodi-0.dtd"
   xmlns="http://www.w3.org/2000/svg"
   xmlns:svg="http://www.w3.org/2000/svg"><sodipodi:namedview
     id="namedview1"
     pagecolor="#ffffff"
     bordercolor="#666666"
     borderopacity="1.0"
     inkscape:showpageshadow="2"
     inkscape:pageopacity="0.0"
     inkscape:pagecheckerboard="0"
     inkscape:deskcolor="#d1d1d1"
     inkscape:document-units="mm"
     inkscape:zoom="0.086524095"
     inkscape:cx="3461.4635"
     inkscape:cy="17.336211"
     inkscape:window-width="1920"
     inkscape:window-height="991"
     inkscape:window-x="1911"
     inkscape:window-y="23"
     inkscape:window-maximized="1"
     inkscape:current-layer="layer1" /><defs
     id="defs1" /><g
     inkscape:label="Layer 1"
     inkscape:groupmode="layer"
     id="layer1"
     transform="translate(-1336.4818,244.21242)"><path
       style="fill:#552200"
       d="m 1383.5365,-91.177347 c -0.2183,-0.044 -1.2898,-0.22461 -2.3812,-0.40125 -25.8425,-4.18258 -35.6587,-37.129413 -16.7049,-56.067663 2.7351,-2.73282 2.761,-2.77043 2.3659,-3.43959 -0.2197,-0.3721 -4.9568,-7.58218 -10.527,-16.02239 -17.9194,-27.15225 -19.3601,-30.58742 -19.7739,-47.14633 -0.2152,-8.6136 0.3099,-8.8937 10.5382,-5.62154 14.9818,4.79288 21.6534,10.93408 35.9538,33.0958 21.573,33.43232 18.0882,29.71744 27.95,29.79591 6.8047,0.0541 8.8159,-0.005 9.0236,-0.26459 0.336,-0.42042 6.674,-12.2001 10.7459,-19.97226 3.6866,-7.03659 3.6285,-5.97343 0.6058,-11.09447 -18.0769,-30.62619 -18.4262,-31.42787 -18.4248,-42.29251 0,-12.14475 2.5393,-16.3193 7.198,-11.84011 6.2257,5.986 11.7499,13.72562 19.9234,27.91354 5.9459,10.3212 4.8609,10.0609 8.8229,2.11667 13.6725,-27.41459 23.292,-37.99096 25.6775,-28.23181 3.2533,13.3088 2.0658,18.34829 -9.8746,41.90715 -8.6553,17.07732 -8.2952,13.41587 -2.3105,23.49576 2.7442,4.62186 6.2952,10.60603 7.8913,13.29817 2.9019,4.89479 2.9019,4.89479 9.4966,4.89479 5.6865,0 6.5827,-0.054 6.5081,-0.3918 -0.048,-0.21549 -0.4359,-1.74717 -0.8631,-3.40373 -3.4141,-13.24142 -2.7071,-23.15099 2.4151,-33.8505 2.8718,-5.99875 6.4679,-5.51155 5.4258,0.73511 -2.2597,13.5463 10.1952,18.79877 14.1575,5.97046 3.2621,-10.56158 1.8398,-17.22209 -4.5571,-21.34084 -3.4659,-2.23156 -2.7117,-4.83334 1.8969,-6.54348 12.0809,-4.48295 14.8072,-10.60322 9.7959,-21.99094 -5.0172,-11.40136 10.9187,-2.1098 16.5302,9.63802 4.1246,8.63497 4.0387,12.162 -0.7671,31.5102 -13.1726,53.03334 -12.2282,48.37206 -10.2536,50.61229 16.687,18.93138 8.0735,47.764553 -16.1966,54.217293 -2.3456,0.62361 -117.3528,1.30688 -120.288,0.71464 z m 130.6861,-61.444953 c 0.2509,-0.93243 3.5787,-14.3731 10.858,-43.85468 3.7609,-15.23178 3.7818,-15.33826 3.7628,-19.18229 -0.025,-5.06841 -1.6101,-9.87755 -4.6554,-14.1261 -2.3985,-3.34616 -2.4827,-3.32723 -2.4422,0.54889 0.081,7.78163 -3.1994,12.72637 -10.9217,16.46078 -1.217,0.58855 -2.2721,1.12937 -2.3445,1.20183 -0.072,0.0725 0.5095,0.82459 1.2933,1.67143 5.2047,5.62342 5.6482,17.38701 1.0166,26.97086 -4.2265,8.74584 -14.475,9.72063 -20.2154,1.92281 -1.4378,-1.95306 -1.5243,-1.96232 -1.9063,-0.2041 -1.0492,4.82848 -0.023,14.20864 2.3545,21.51296 0.8611,2.64584 0.8611,2.64584 4.6975,2.8509 6.6482,0.35536 11.2507,1.53017 15.7428,4.01841 2.5791,1.42864 2.4347,1.41774 2.76,0.2083 z m -141.6531,-0.82985 c 1.9419,-1.81195 9.0344,-3.21804 17.0514,-3.38044 3.5647,-0.0722 6.5204,-0.17032 6.5681,-0.21801 0.4202,-0.42028 -26.5487,-41.04945 -29.378,-44.25848 -5.8855,-6.67526 -18.329,-14.03755 -24.8141,-14.6814 -1.7255,-0.17132 -0.084,12.28549 2.5477,19.32859 2.1192,5.67231 3.3256,7.71991 14.9173,25.32032 4.4087,6.69396 8.8873,13.51028 9.9525,15.14739 1.8814,2.89142 2.458,3.39252 3.1551,2.74203 z m 63.377,-11.9363 c 4.9456,-9.30166 5.446,-9.97583 9.2778,-12.49925 2.2304,-1.46886 3.5267,-2.61276 2.543,-2.2442 -2.3131,0.86675 -5.2383,0.28689 -7.1815,-1.4236 -0.6848,-0.60283 -1.2857,-1.05163 -1.3353,-0.99732 -0.05,0.0543 -2.0768,3.94938 -4.505,8.6557 -2.4282,4.70631 -5.4186,10.39949 -6.6453,12.65149 -1.2267,2.25201 -2.2303,4.15017 -2.2303,4.21815 0,0.068 1.2701,0.0898 2.8226,0.0485 2.8227,-0.0751 2.8227,-0.0751 7.254,-8.40948 z m 15.5833,8.26823 c -0.011,-0.46665 -7.1164,-12.36927 -7.3842,-12.36927 -0.267,0 -6.6341,11.86061 -6.6341,12.35795 0,0.11537 3.1552,0.20976 7.0115,0.20976 3.8563,0 7.0094,-0.0893 7.0068,-0.19844 z m 15.5245,-0.18508 c -0.1846,-0.48096 -12.0751,-20.56501 -12.3661,-20.88725 -0.1191,-0.13191 -0.834,0.32159 -1.6175,1.02598 -0.7722,0.69431 -2.1481,1.7934 -3.0576,2.44243 -1.9082,1.3617 0.307,6.63428 7.2292,17.20705 0.4957,0.75711 10.1008,0.96444 9.812,0.21179 z m -6.9823,-43.60345 c 10.4394,-20.47273 11.5096,-23.80448 10.5512,-32.84838 -0.3723,-3.5129 -0.4334,-3.53147 -2.7245,-0.82733 -4.7682,5.62764 -5.9376,7.61859 -14.7441,25.10364 -6.8496,13.59955 -7.105,14.19446 -6.094,14.19446 2.3222,0 5.3614,3.16626 5.9047,6.15156 0.2898,1.59215 0.2978,1.57882 7.1067,-11.77395 z m -20.3062,6.39831 c 2.6405,-5.30949 2.6405,-5.30949 1.6098,-7.20989 -9.4593,-17.44129 -18.4367,-31.23985 -22.4769,-34.548 -1.9158,-1.56863 -1.4371,10.33071 0.6568,16.32644 1.4001,4.00913 16.5064,30.74095 17.3719,30.74095 0.1088,0 1.3861,-2.38928 2.8384,-5.3095 z"
       id="path24" /></g></svg>
