<?xml version="1.0" encoding="UTF-8" standalone="no"?>
<!-- Created with Inkscape (http://www.inkscape.org/) -->

<svg
   width="135.46666mm"
   height="135.46666mm"
   viewBox="0 0 135.46666 135.46666"
   version="1.1"
   id="svg1"
   xml:space="preserve"
   inkscape:version="1.3.2 (091e20e, 2023-11-25, custom)"
   sodipodi:docname="nozik.svg"
   inkscape:export-filename="n1.2.svg"
   inkscape:export-xdpi="300"
   inkscape:export-ydpi="300"
   xmlns:inkscape="http://www.inkscape.org/namespaces/inkscape"
   xmlns:sodipodi="http://sodipodi.sourceforge.net/DTD/sodipodi-0.dtd"
   xmlns="http://www.w3.org/2000/svg"
   xmlns:svg="http://www.w3.org/2000/svg"><sodipodi:namedview
     id="namedview1"
     pagecolor="#ffffff"
     bordercolor="#666666"
     borderopacity="1.0"
     inkscape:showpageshadow="2"
     inkscape:pageopacity="0.0"
     inkscape:pagecheckerboard="0"
     inkscape:deskcolor="#d1d1d1"
     inkscape:document-units="mm"
     inkscape:zoom="0.086524095"
     inkscape:cx="3461.4635"
     inkscape:cy="17.336211"
     inkscape:window-width="1920"
     inkscape:window-height="991"
     inkscape:window-x="1911"
     inkscape:window-y="23"
     inkscape:window-maximized="1"
     inkscape:current-layer="layer1" /><defs
     id="defs1" /><g
     inkscape:label="Layer 1"
     inkscape:groupmode="layer"
     id="layer1"
     transform="translate(-192.76282,-80.76667)"><rect
       style="display:inline;fill:#ffffff;fill-opacity:1;fill-rule:evenodd;stroke:none;stroke-width:0.600001;paint-order:fill markers stroke"
       id="rect5"
       width="135.46666"
       height="135.46666"
       x="192.76282"
       y="80.76667"
       inkscape:export-filename="nozik_invert_white.png"
       inkscape:export-xdpi="300"
       inkscape:export-ydpi="300" /><path
       id="rect4"
       style="fill:#501616;fill-opacity:1;fill-rule:evenodd;stroke:none;stroke-width:0.600001;paint-order:fill markers stroke"
       d="m 268.60929,107.13284 c -0.40159,-0.0509 -0.70744,-0.0531 -0.86197,0.006 -0.51582,0.19794 -0.49217,3.48508 0.0439,6.11642 0.5267,2.58533 2.07869,6.48605 3.6096,9.0718 0.98529,1.66419 3.87941,5.81816 12.47469,17.90433 l 0.79995,1.12448 3.71915,0.005 c 2.22476,0.003 4.44823,0.15878 5.533,0.38861 2.04645,0.43359 5.21699,1.80688 5.89111,2.55178 0.51134,0.56502 0.75774,0.65297 0.4594,0.16381 v -5.1e-4 c -5.05509,-8.28831 -19.47419,-30.24877 -20.68866,-31.50919 -1.65902,-1.7218 -4.10642,-3.45029 -6.28127,-4.43642 -1.42788,-0.64743 -3.49417,-1.23389 -4.69893,-1.38648 z m -44.53837,4.93303 c -0.88218,-0.33853 -3.30239,3.45829 -4.038,6.3345 -0.4676,1.82829 -0.53942,3.33572 -0.70073,14.67921 l -0.17983,12.64212 0.76222,-0.69557 c 0.4192,-0.38263 1.28713,-1.02153 1.92908,-1.41955 2.12084,-1.31492 4.64462,-2.01534 7.82898,-2.17351 1.60073,-0.0795 3.07803,-0.27855 3.28301,-0.44183 0.40452,-0.3222 5.19474,-6.63646 6.62388,-8.73125 1.06089,-1.55502 1.40543,-2.61743 2.41329,-7.44038 0.74482,-3.56417 0.94732,-5.42955 0.62374,-5.75313 -0.23069,-0.23069 -3.64334,1.24312 -4.932,2.1301 -1.53655,1.05761 -3.64629,3.354 -3.64629,3.96875 0,0.27544 0.35718,0.99414 0.79375,1.5968 1.40576,1.9406 1.25563,2.36865 -2.4474,6.98304 -3.03182,3.77799 -3.30485,4.04449 -4.22248,4.12068 -0.53954,0.0448 -1.23405,-0.0545 -1.54357,-0.22014 -1.1854,-0.6344 -1.31151,-1.57384 -1.31879,-9.84126 -0.008,-9.56413 -0.46776,-15.44652 -1.22886,-15.73858 z m 55.71804,4.15479 c 0.41182,0 8.9557,13.37937 8.70438,13.63069 -0.0732,0.0732 -0.9724,-0.2867 -1.99832,-0.79995 -4.51932,-2.26092 -8.50887,-8.90967 -7.21714,-12.02821 0.18286,-0.44147 0.41306,-0.80253 0.51108,-0.80253 z m -38.57232,27.0185 c -14.63469,0.0317 -14.62168,0.32309 -17.23305,1.5999 -2.17343,1.06267 -4.92692,3.76498 -5.92109,5.81102 -2.91294,5.99489 -1.15404,13.22025 4.13773,16.99638 1.73746,1.23983 3.82425,2.18458 5.61981,2.54403 0.58208,0.11652 15.23798,0.22486 32.56804,0.24081 30.57802,0.0281 31.56964,0.0134 33.55558,-0.49454 4.68379,-1.19791 8.12181,-4.24865 9.72033,-8.62583 0.8456,-2.31545 0.82873,-6.75947 -0.0341,-8.97465 -1.61363,-4.14295 -4.57133,-6.99403 -8.71885,-8.40465 l -1.73891,-0.59118 -31.79858,-0.0734 c -8.77311,-0.0202 -15.27868,-0.0385 -20.15691,-0.0279 z m 19.27996,3.21118 a 10,10 0 0 1 9.99939,9.9999 10,10 0 0 1 -9.99939,9.99991 10,10 0 0 1 -9.9999,-9.99991 10,10 0 0 1 9.9999,-9.9999 z m -1.28467,4.13204 0.62166,6.96134 h 1.34152 l 0.62271,-6.96134 z m 0.68678,8.48269 c -0.33274,0 -0.53423,0.0514 -0.60513,0.15503 -0.0655,0.0962 -0.0982,0.3039 -0.0982,0.62218 v 1.69861 c 0,0.31088 0.0299,0.51804 0.0899,0.62167 0.0654,0.10364 0.17719,0.15554 0.33538,0.15554 h 1.47278 c 0.33818,0 0.54024,-0.0485 0.60564,-0.14469 0.0655,-0.10363 0.0982,-0.31424 0.0982,-0.63252 v -1.69861 c 0,-0.31088 -0.0304,-0.51855 -0.0904,-0.62218 -0.06,-0.10363 -0.16892,-0.15503 -0.32711,-0.15503 h -0.28577 -1.19476 z m 23.30142,13.24725 -3.24012,3.01171 c -1.7822,1.65638 -3.46786,3.08036 -3.7455,3.16466 -0.27764,0.0843 -1.48316,0.27314 -2.67943,0.41961 -3.99173,0.48874 -6.04985,2.09223 -7.01301,5.46324 -0.79768,2.79189 -0.0355,2.89233 3.0515,0.40255 1.63052,-1.31506 2.56079,-1.87621 3.32641,-2.00556 1.84418,-0.31157 3.30011,0.84372 3.0055,2.38487 -0.0689,0.3606 -0.76654,1.37375 -1.54978,2.25154 -0.78323,0.87779 -1.42368,1.69084 -1.42368,1.80661 0,0.72498 1.14087,0.61449 2.5368,-0.24598 0.44938,-0.27701 3.73367,-3.45312 7.29877,-7.05745 7.63797,-7.72198 9.00366,-9.18902 8.77053,-9.42216 -0.0956,-0.0956 -2.01041,-0.17364 -4.25556,-0.17364 z" /><path
       style="display:none;fill:#501616"
       d="M 192.76281,148.5 V 80.76667 h 67.73333 67.73333 V 148.5 216.23333 h -67.73333 -67.73333 z m 82.70561,40.46551 c 0.44939,-0.27701 3.73398,-3.45265 7.29909,-7.05698 7.63797,-7.72199 9.0036,-9.18911 8.77047,-9.42225 -0.0956,-0.0956 -2.01072,-0.17378 -4.25587,-0.17378 h -4.08209 l -3.24037,3.01162 c -1.78221,1.65639 -3.46753,3.08058 -3.74517,3.16488 -0.27764,0.0843 -1.48356,0.27309 -2.67983,0.41956 -3.99174,0.48874 -6.04987,2.09198 -7.01303,5.46299 -0.79769,2.7919 -0.0355,2.89248 3.05147,0.4027 1.63052,-1.31507 2.56102,-1.87598 3.32664,-2.00533 1.84418,-0.31157 3.29992,0.84356 3.00531,2.38471 -0.0689,0.3606 -0.76617,1.37384 -1.54941,2.25163 -0.78324,0.87779 -1.42407,1.69071 -1.42407,1.80648 0,0.72498 1.14093,0.61424 2.53686,-0.24623 z m 18.4749,-19.02848 c 4.6838,-1.19791 8.12184,-4.24891 9.72036,-8.6261 0.8456,-2.31545 0.82873,-6.75929 -0.0341,-8.97447 -1.61363,-4.14296 -4.57105,-6.99381 -8.71857,-8.40443 l -1.73888,-0.5914 -31.79875,-0.0733 c -35.09249,-0.0809 -33.90795,-0.13069 -37.38979,1.57173 -2.17343,1.06267 -4.92736,3.76541 -5.92153,5.81145 -2.91294,5.9949 -1.15396,13.2199 4.13782,16.99603 1.73746,1.23983 3.8246,2.1846 5.62017,2.54405 0.58208,0.11652 15.23749,0.2249 32.56757,0.24085 30.57805,0.0281 31.56971,0.0135 33.55565,-0.4944 z m -72.09976,-26.3302 c 2.12084,-1.31492 4.64425,-2.01558 7.82862,-2.17375 1.60073,-0.0795 3.07814,-0.27814 3.28312,-0.44142 0.40452,-0.3222 5.195,-6.63666 6.62414,-8.73145 1.06089,-1.55502 1.40551,-2.61747 2.41337,-7.44042 0.74482,-3.56418 0.94694,-5.42965 0.62336,-5.75323 -0.23069,-0.23069 -3.64336,1.24346 -4.93202,2.13044 -1.53655,1.05761 -3.64634,3.35389 -3.64634,3.96864 0,0.27544 0.35718,0.99388 0.79375,1.59654 1.40576,1.9406 1.25563,2.36897 -2.4474,6.98336 -3.03183,3.778 -3.3045,4.0441 -4.22213,4.12029 -0.53954,0.0448 -1.23423,-0.0541 -1.54375,-0.21974 -1.1854,-0.6344 -1.31127,-1.57381 -1.31855,-9.84124 -0.008,-9.56414 -0.46772,-15.44688 -1.22882,-15.73894 -0.88218,-0.33853 -3.30266,3.45829 -4.03827,6.3345 -0.4676,1.82829 -0.53959,3.33602 -0.7009,14.67952 l -0.17977,12.64195 0.76219,-0.69569 c 0.4192,-0.38263 1.28744,-1.02134 1.9294,-1.41936 z m 78.43418,0.85827 c -5.0551,-8.28832 -19.47395,-30.2487 -20.68842,-31.50912 -1.65903,-1.7218 -4.10635,-3.45037 -6.2812,-4.4365 -1.90384,-0.86324 -4.94301,-1.61769 -5.56111,-1.3805 -0.51582,0.19794 -0.4923,3.4851 0.0438,6.11645 0.5267,2.58533 2.07894,6.48636 3.60985,9.07211 0.98529,1.66419 3.87948,5.81804 12.47477,17.90423 l 0.7997,1.12448 3.71938,0.005 c 2.22476,0.003 4.44813,0.159 5.5329,0.38883 2.04646,0.43359 5.21674,1.80687 5.89086,2.55177 0.51134,0.56502 0.75785,0.65282 0.45951,0.16366 z m -13.78319,-15.41342 c -4.51932,-2.26092 -8.50843,-8.90963 -7.21669,-12.02817 0.18286,-0.44147 0.41268,-0.80267 0.51071,-0.80267 0.41182,0 8.9558,13.37954 8.70448,13.63086 -0.0732,0.0732 -0.97257,-0.28677 -1.9985,-0.80002 z"
       id="path1"
       sodipodi:nodetypes="cccccccccsssscsssssssssssscscsssssssssssssssssssscssscsscsssssscsssccsssss"
       inkscape:export-filename="nozik.png"
       inkscape:export-xdpi="300"
       inkscape:export-ydpi="300" /><path
       id="path2"
       style="display:none;fill:#501616;fill-rule:evenodd;stroke:none;stroke-width:0.252261;paint-order:fill markers stroke"
       d="m 260.4961,146.45052 a 10,10 0 0 0 -9.99991,9.9999 10,10 0 0 0 9.99991,9.99991 10,10 0 0 0 9.9999,-9.99991 10,10 0 0 0 -9.9999,-9.9999 z m -1.28468,4.13204 h 2.58589 l -0.62219,6.96134 h -1.34152 z m 0.6873,8.48269 h 1.19476 0.28628 c 0.15819,0 0.26711,0.0514 0.32711,0.15503 0.06,0.10363 0.0904,0.3113 0.0904,0.62218 v 1.69861 c 0,0.31828 -0.0327,0.52889 -0.0982,0.63252 -0.0654,0.0962 -0.26745,0.14469 -0.60564,0.14469 h -1.47278 c -0.15819,0 -0.26993,-0.0519 -0.33538,-0.15554 -0.06,-0.10363 -0.0899,-0.31079 -0.0899,-0.62167 v -1.69861 c 0,-0.31828 0.0327,-0.52596 0.0982,-0.62218 0.0709,-0.10363 0.27239,-0.15503 0.60513,-0.15503 z" /></g></svg>
