<?xml version="1.0" encoding="UTF-8" standalone="no"?>
<!-- Created with Inkscape (http://www.inkscape.org/) -->

<svg
   width="270.93335mm"
   height="270.93332mm"
   viewBox="0 0 270.93335 270.93332"
   version="1.1"
   id="svg1"
   xml:space="preserve"
   inkscape:version="1.3.2 (091e20e, 2023-11-25, custom)"
   sodipodi:docname="nozik.svg"
   inkscape:export-filename="n1.2.svg"
   inkscape:export-xdpi="300"
   inkscape:export-ydpi="300"
   xmlns:inkscape="http://www.inkscape.org/namespaces/inkscape"
   xmlns:sodipodi="http://sodipodi.sourceforge.net/DTD/sodipodi-0.dtd"
   xmlns="http://www.w3.org/2000/svg"
   xmlns:svg="http://www.w3.org/2000/svg"><sodipodi:namedview
     id="namedview1"
     pagecolor="#ffffff"
     bordercolor="#666666"
     borderopacity="1.0"
     inkscape:showpageshadow="2"
     inkscape:pageopacity="0.0"
     inkscape:pagecheckerboard="0"
     inkscape:deskcolor="#d1d1d1"
     inkscape:document-units="mm"
     inkscape:zoom="0.086524095"
     inkscape:cx="3461.4635"
     inkscape:cy="17.336211"
     inkscape:window-width="1920"
     inkscape:window-height="991"
     inkscape:window-x="1911"
     inkscape:window-y="23"
     inkscape:window-maximized="1"
     inkscape:current-layer="layer1" /><defs
     id="defs1" /><g
     inkscape:label="Layer 1"
     inkscape:groupmode="layer"
     id="layer1"
     transform="translate(-1964.164,9.2922661)"><path
       style="fill:#501616"
       d="M 2099.6308,261.64105 H 1964.1641 V 126.17439 -9.2922659 h 135.4667 135.4666 V 126.17439 261.64105 Z m 0.6614,-82.90993 69.0563,-0.0369 2.3252,-0.72938 2.3253,-0.72938 1.8061,-0.90957 1.8062,-0.90957 2.1427,-1.61455 2.1426,-1.61455 1.4832,-1.77358 1.4832,-1.77358 1.0037,-1.7198 1.0037,-1.71979 0.6798,-1.71979 0.6797,-1.71979 0.4775,-1.98437 0.4775,-1.98438 -0.028,-3.70417 -0.028,-3.70416 -0.5551,-2.05946 -0.5552,-2.05946 -1.0402,-2.21973 -1.0402,-2.21973 -0.8433,-1.22569 -0.8433,-1.22569 -1.6183,-1.72992 -1.6182,-1.72992 -1.619,-1.15527 -1.6189,-1.15527 -2.2301,-1.0661 -2.23,-1.0661 -2.1166,-0.55964 -2.1167,-0.55964 -4.9264,-0.13837 -4.9263,-0.13837 -0.8284,-2.71835 -0.8283,-2.71835 v -1.36622 -1.36622 l 0.2971,-0.57792 0.2971,-0.57791 2.8449,-2.91042 2.8449,-2.91042 0.7445,-1.45521 0.7444,-1.4552 0.016,-1.98438 0.016,-1.98437 -0.5149,-1.38887 -0.5149,-1.38886 -1.0953,-1.39558 -1.0954,-1.39558 -1.5644,-0.83083 -1.5645,-0.83084 -2.2489,-0.72489 -2.249,-0.724894 -0.8599,-0.858892 -0.8599,-0.858892 V 96.951256 96.2502 l 0.4307,-0.846756 0.4306,-0.846757 2.7559,-2.837493 2.7559,-2.837492 0.6981,-1.524776 0.698,-1.524776 -0.013,-2.032257 -0.013,-2.032257 -0.7993,-1.707909 -0.7992,-1.70791 -0.9414,-1.042073 -0.9415,-1.042074 -1.2709,-0.687272 -1.271,-0.687272 -1.9166,-0.578395 -1.9166,-0.578396 -0.8615,-0.579909 -0.8615,-0.579908 -0.3518,-0.731553 -0.3518,-0.731552 0.2841,-0.814964 0.2841,-0.814963 1.4204,-1.618607 1.4204,-1.618607 0.6978,-1.029109 0.6978,-1.02911 v -0.941044 -0.941044 l -0.6728,-0.970854 -0.6728,-0.970854 -0.8946,-0.481805 -0.8947,-0.481804 -0.5253,0.247812 -0.5254,0.247812 -2.8117,3.175 -2.8116,3.175 -0.7106,1.445776 -0.7106,1.445776 v 1.861515 1.861516 l 0.7266,1.576336 0.7267,1.576337 0.6856,0.898886 0.6856,0.898885 1.194,0.757195 1.194,0.757195 2.6573,0.825576 2.6574,0.825576 0.8765,0.876486 0.8765,0.876486 v 1.018645 1.018646 l -0.4634,0.702526 -0.4633,0.702526 -2.4044,2.356733 -2.4043,2.356733 -0.9009,1.829969 -0.9009,1.829969 v 2.254522 2.254521 l 0.4747,1.368037 0.4747,1.36803 1.0763,1.22272 1.0763,1.22271 0.9599,0.48792 0.96,0.48791 2.7177,0.83708 2.7178,0.83708 0.9203,0.80802 0.9203,0.80802 v 1.11181 1.11181 l -0.6137,0.83178 -0.6137,0.83178 -2.4129,2.40147 -2.4129,2.40148 -0.7438,1.5145 -0.7437,1.51451 -0.091,2.28314 -0.091,2.28313 0.588,2.34707 0.588,2.34708 0.1254,0.32687 0.1254,0.32688 -61.344,0.07 -61.344,0.07 -2.1167,0.59269 -2.1167,0.59269 -2.3914,1.17699 -2.3915,1.17699 -1.7933,1.38441 -1.7933,1.3844 -1.7214,2.13758 -1.7214,2.13758 -1.2991,2.64583 -1.299,2.64583 -0.5769,2.11667 -0.577,2.11667 -0.01,3.96875 -0.01,3.96875 0.6027,2.24882 0.6027,2.24883 0.8707,1.88446 0.8707,1.88447 1.0732,1.5804 1.0732,1.5804 1.3523,1.47957 1.3522,1.47957 1.7746,1.30857 1.7746,1.30857 1.8814,0.94181 1.8814,0.94181 1.6211,0.54608 1.621,0.54608 1.3923,0.23368 1.3924,0.23368 z m -65.2197,-15.59655 -2.249,0.0764 -1.0858,-0.355 -1.0857,-0.35501 -1.202,-0.82694 -1.2019,-0.82694 -0.8299,-1.12854 -0.8299,-1.12853 -0.3882,-1.30689 -0.3881,-1.30689 v -1.35916 -1.35916 l 0.4246,-1.42966 0.4246,-1.42965 0.7891,-1.14696 0.7891,-1.14696 1.0544,-0.76378 1.0544,-0.76378 1.3348,-0.44335 1.3347,-0.44335 2.1519,0.11817 2.1518,0.11816 1.1171,0.57647 1.1172,0.57647 0.9647,0.84708 0.9648,0.84708 0.6136,0.97193 0.6135,0.97194 0.4459,1.53378 0.4459,1.53378 -0.134,1.47781 -0.134,1.47782 -0.5849,1.24428 -0.5849,1.24428 -1.0055,1.1423 -1.0055,1.1423 -1.4169,0.77202 -1.417,0.77202 z m -10.4165,-37.07834 0.4946,-0.19898 2.5135,-0.56545 2.5136,-0.56545 9.4278,-0.004 9.4279,-0.004 2.7257,-5.15938 2.7257,-5.15937 5.0652,-9.525 5.0651,-9.525003 2.4102,-4.630208 2.4102,-4.630208 1.2154,-2.248958 1.2155,-2.248959 2.6277,-5.2037 2.6278,-5.2037 1.0568,-2.539339 1.0569,-2.539339 0.8165,-2.549001 0.8165,-2.549 0.9331,-3.709305 0.9332,-3.709306 0.5092,-3.461154 0.5093,-3.461154 v -0.727604 -0.727604 h -0.4624 -0.4623 l -2.4691,0.822552 -2.469,0.822552 -3.617,1.822551 -3.6171,1.822551 -2.4904,1.786668 -2.4904,1.786667 -2.6009,2.472543 -2.601,2.472543 -1.6847,2.025373 -1.6846,2.025374 -1.3578,2.027076 -1.3577,2.027075 -2.7424,5.381258 -2.7424,5.381257 -8.9272,17.462499 -8.9272,17.462503 -3.4454,6.72113 -3.4453,6.72113 z"
       id="path22" /><path
       id="path23"
       style="fill:#ffffff;fill-opacity:1;fill-rule:evenodd;stroke:none;stroke-width:0.600001;paint-order:fill markers stroke"
       d="m 2082.8659,45.211218 -2.4691,0.822172 -2.4686,0.822688 -3.6174,1.822628 -3.6168,1.822628 -2.4903,1.786454 -2.4908,1.786971 -2.6009,2.472201 -2.6008,2.472717 -1.6847,2.025199 -1.6846,2.025717 -1.3576,2.026749 -1.358,2.027267 -2.7425,5.381067 -2.742,5.381583 -8.9276,17.4625 -8.9271,17.462501 -3.4452,6.72104 -3.4453,6.72103 0.4966,-0.19792 0.4945,-0.19895 2.5136,-0.56586 2.514,-0.56534 9.4274,-0.004 9.4283,-0.004 2.7255,-5.15938 2.7259,-5.15937 5.0648,-9.525 5.0653,-9.525001 2.4102,-4.630208 2.4102,-4.630208 1.2154,-2.248959 1.2155,-2.248958 2.6277,-5.203817 2.6277,-5.203817 1.0568,-2.539379 1.0568,-2.53938 0.8165,-2.548682 0.8165,-2.549198 0.9333,-3.709335 0.9332,-3.709334 0.5091,-3.461287 0.5095,-3.460771 v -0.727604 -0.727604 h -0.4625 z m 67.1137,14.189314 -0.5255,0.248047 -0.5256,0.24753 -2.8117,3.175 -2.8112,3.175 -0.7106,1.445907 -0.711,1.445906 v 1.861386 1.861385 l 0.7265,1.576648 0.7271,1.576131 0.6853,0.89917 0.6857,0.898653 1.1943,0.75706 1.1937,0.757576 2.6572,0.825273 2.6577,0.825789 0.8764,0.876432 0.8765,0.876433 v 1.018542 1.018543 l -0.4636,0.702799 -0.463,0.702283 -2.4045,2.356962 -2.4045,2.356445 -0.9007,1.830379 -0.9007,1.829863 v 2.254643 2.254126 l 0.4743,1.368387 0.475,1.36788 1.0764,1.22266 1.0759,1.22267 0.9601,0.48782 0.9602,0.48783 2.7176,0.83716 2.7177,0.83716 0.9204,0.80822 0.9203,0.8077 v 1.11207 1.11156 l -0.6139,0.832 -0.6134,0.83199 -2.4133,2.4014 -2.4128,2.4014 -0.7436,1.51464 -0.7436,1.51412 -0.091,2.28306 -0.091,2.28359 0.5881,2.34662 0.588,2.34715 0.1256,0.32711 0.1251,0.32659 -61.3436,0.0703 -61.344,0.0698 -2.1167,0.59272 -2.1167,0.59273 -2.3916,1.17719 -2.3915,1.17667 -1.7932,1.38442 -1.7932,1.38441 -1.7218,2.13785 -1.7214,2.13734 -1.2991,2.64583 -1.2987,2.64584 -0.5772,2.11666 -0.5767,2.11667 -0.01,3.96875 -0.01,3.96875 0.6026,2.24896 0.6031,2.24896 0.8707,1.88412 0.8708,1.88464 1.0728,1.58026 1.0733,1.58079 1.3523,1.47949 1.3524,1.4795 1.7746,1.30845 1.7746,1.30844 1.881,0.94206 1.8815,0.94155 1.6211,0.54622 1.6211,0.54622 1.3922,0.23358 1.3926,0.23357 69.0692,-0.0367 69.0563,-0.0372 2.3254,-0.72916 2.3254,-0.72915 1.8061,-0.91002 1.8061,-0.90951 2.1425,-1.61437 2.143,-1.61437 1.4832,-1.77406 1.4831,-1.77353 1.0035,-1.71979 1.0036,-1.71979 0.68,-1.7198 0.6796,-1.71979 0.4775,-1.98437 0.4775,-1.98438 -0.028,-3.70416 -0.028,-3.70417 -0.555,-2.05931 -0.5556,-2.0593 -1.0402,-2.22002 -1.0403,-2.2195 -0.8428,-1.22577 -0.8434,-1.22576 -1.6185,-1.72961 -1.618,-1.73013 -1.619,-1.15549 -1.619,-1.15497 -2.2304,-1.06608 -2.2298,-1.06608 -2.1167,-0.55966 -2.1166,-0.55966 -4.9263,-0.13849 -4.9264,-0.13849 -0.8283,-2.71818 -0.8284,-2.71818 v -1.36633 -1.36632 l 0.2971,-0.57774 0.2972,-0.57826 2.8448,-2.91042 2.8448,-2.91042 0.7446,-1.45521 0.7447,-1.4552 0.016,-1.98438 0.016,-1.98437 -0.5152,-1.38855 -0.5147,-1.38906 -1.0955,-1.39527 -1.0951,-1.39578 -1.5647,-0.83095 -1.5643,-0.83096 -2.2489,-0.7245 -2.249,-0.725024 -0.8599,-0.858863 -0.8599,-0.858862 v -0.701249 -0.701249 l 0.4305,-0.84646 0.4304,-0.846977 2.756,-2.837553 2.7559,-2.837036 0.6981,-1.524972 0.6982,-1.524971 -0.013,-2.031917 -0.013,-2.032435 -0.7994,-1.707906 -0.7995,-1.707906 -0.941,-1.042313 -0.9415,-1.041797 -1.2707,-0.687297 -1.2713,-0.687296 -1.9167,-0.57826 -1.9166,-0.578776 -0.8615,-0.579809 -0.8614,-0.57981 -0.352,-0.731738 -0.3514,-0.731222 0.2837,-0.814937 0.2843,-0.814937 1.4206,-1.618506 1.42,-1.619023 0.6982,-1.028877 0.6976,-1.029395 v -0.941028 -0.941028 l -0.6728,-0.970483 -0.6729,-0.971 -0.8945,-0.481625 z m -116.9246,86.289828 2.1518,0.11833 2.1518,0.11783 1.1172,0.57671 1.1173,0.5767 0.9648,0.84698 0.9648,0.84698 0.6134,0.97203 0.6134,0.97204 0.4459,1.53375 0.446,1.53376 -0.1338,1.47743 -0.1339,1.47794 -0.585,1.24437 -0.5849,1.24437 -1.0057,1.14205 -1.0056,1.14257 -1.417,0.77204 -1.4169,0.77205 -2.2485,0.0765 -2.2494,0.076 -1.0858,-0.35501 -1.0857,-0.3545 -1.202,-0.82734 -1.2015,-0.82683 -0.8299,-1.12861 -0.8299,-1.12861 -0.3886,-1.3069 -0.3881,-1.3069 v -1.35909 -1.35909 l 0.4248,-1.42937 0.4248,-1.42988 0.7891,-1.1467 0.7891,-1.14722 1.0542,-0.76378 1.0542,-0.76378 1.3348,-0.44338 z" /></g></svg>
